<svg width="60" height="60" viewBox="0 0 180 180" fill="none" xmlns="http://www.w3.org/2000/svg">
<path d="M90 30C56.9175 30 30 57.0375 30 90.5025V97.5H45C50.9674 97.5 56.6903 99.8705 60.9099 104.09C65.1295 108.31 67.5 114.033 67.5 120V135C67.5 140.967 65.1295 146.69 60.9099 150.91C56.6903 155.129 50.9674 157.5 45 157.5H15V90.5025C15 48.855 48.525 15 90 15C131.475 15 165 48.855 165 90.5025V157.5H135C129.033 157.5 123.31 155.129 119.09 150.91C114.871 146.69 112.5 140.967 112.5 135V120C112.5 114.033 114.871 108.31 119.09 104.09C123.31 99.8705 129.033 97.5 135 97.5H150V90.5025C150 57.0375 123.082 30 90 30ZM150 112.5H135C133.011 112.5 131.103 113.29 129.697 114.697C128.29 116.103 127.5 118.011 127.5 120V135C127.5 136.989 128.29 138.897 129.697 140.303C131.103 141.71 133.011 142.5 135 142.5H150V112.5ZM30 112.5V142.5H45C46.9891 142.5 48.8968 141.71 50.3033 140.303C51.7098 138.897 52.5 136.989 52.5 135V120C52.5 118.011 51.7098 116.103 50.3033 114.697C48.8968 113.29 46.9891 112.5 45 112.5H30Z" fill="white"/>
</svg>


