<svg width="200" height="200" viewBox="0 0 200 200" fill="none" xmlns="http://www.w3.org/2000/svg">
<path d="M38.2812 63C33.4328 63 28.7829 64.9261 25.3545 68.3545C21.9261 71.7829 20 76.4328 20 81.2812V147.094C20 151.942 21.9261 156.592 25.3545 160.021C28.7829 163.449 33.4328 165.375 38.2812 165.375H104.094C108.942 165.375 113.592 163.449 117.021 160.021C120.449 156.592 122.375 151.942 122.375 147.094V81.2812C122.375 76.4328 120.449 71.7829 117.021 68.3545C113.592 64.9261 108.942 63 104.094 63H38.2812ZM74.8438 95.9062V110.531H89.4688C90.4384 110.531 91.3684 110.916 92.0541 111.602C92.7398 112.288 93.125 113.218 93.125 114.187C93.125 115.157 92.7398 116.087 92.0541 116.773C91.3684 117.459 90.4384 117.844 89.4688 117.844H74.8438V132.469C74.8438 133.438 74.4585 134.368 73.7729 135.054C73.0872 135.74 72.1572 136.125 71.1875 136.125C70.2178 136.125 69.2878 135.74 68.6021 135.054C67.9165 134.368 67.5312 133.438 67.5312 132.469V117.844H52.9062C51.9366 117.844 51.0066 117.459 50.3209 116.773C49.6352 116.087 49.25 115.157 49.25 114.187C49.25 113.218 49.6352 112.288 50.3209 111.602C51.0066 110.916 51.9366 110.531 52.9062 110.531H67.5312V95.9062C67.5312 94.9365 67.9165 94.0066 68.6021 93.3209C69.2878 92.6352 70.2178 92.25 71.1875 92.25C72.1572 92.25 73.0872 92.6352 73.7729 93.3209C74.4585 94.0066 74.8438 94.9365 74.8438 95.9062ZM60.2188 180C53.5183 180.01 47.0831 177.383 42.3031 172.687H111.406C116.255 172.687 120.905 170.761 124.333 167.333C127.761 163.905 129.688 159.255 129.688 154.406V85.3031C134.214 89.9246 137 96.2426 137 103.219V154.406C137 161.194 134.304 167.704 129.504 172.504C124.704 177.303 118.194 180 111.406 180H60.2188Z" fill="white"/>
</svg>
