<svg width="205" height="205" viewBox="0 0 205 205" fill="none" xmlns="http://www.w3.org/2000/svg">
<path fill-rule="evenodd" clip-rule="evenodd" d="M102.5 17.083C104.765 17.083 106.938 17.9829 108.54 19.5848C110.142 21.1867 111.042 23.3593 111.042 25.6247V34.1664C111.042 36.4317 110.142 38.6043 108.54 40.2062C106.938 41.8081 104.765 42.708 102.5 42.708C100.235 42.708 98.062 41.8081 96.4602 40.2062C94.8583 38.6043 93.9584 36.4317 93.9584 34.1664V25.6247C93.9584 23.3593 94.8583 21.1867 96.4602 19.5848C98.062 17.9829 100.235 17.083 102.5 17.083ZM17.0833 102.5C17.0833 100.234 17.9832 98.0617 19.5851 96.4599C21.187 94.858 23.3596 93.9581 25.625 93.9581H34.1667C36.432 93.9581 38.6047 94.858 40.2065 96.4599C41.8084 98.0617 42.7083 100.234 42.7083 102.5C42.7083 104.765 41.8084 106.938 40.2065 108.54C38.6047 110.141 36.432 111.041 34.1667 111.041H25.625C23.3596 111.041 21.187 110.141 19.5851 108.54C17.9832 106.938 17.0833 104.765 17.0833 102.5ZM162.292 102.5C162.292 100.234 163.192 98.0617 164.794 96.4599C166.395 94.858 168.568 93.9581 170.833 93.9581H179.375C181.64 93.9581 183.813 94.858 185.415 96.4599C187.017 98.0617 187.917 100.234 187.917 102.5C187.917 104.765 187.017 106.938 185.415 108.54C183.813 110.141 181.64 111.041 179.375 111.041H170.833C168.568 111.041 166.395 110.141 164.794 108.54C163.192 106.938 162.292 104.765 162.292 102.5ZM111.042 170.833C111.042 168.568 110.142 166.395 108.54 164.793C106.938 163.191 104.765 162.291 102.5 162.291C100.235 162.291 98.062 163.191 96.4602 164.793C94.8583 166.395 93.9584 168.568 93.9584 170.833V179.375C93.9584 181.64 94.8583 183.813 96.4602 185.415C98.062 187.017 100.235 187.916 102.5 187.916C104.765 187.916 106.938 187.017 108.54 185.415C110.142 183.813 111.042 181.64 111.042 179.375V170.833ZM156.859 144.781C156.071 143.965 155.129 143.314 154.087 142.867C153.045 142.419 151.924 142.184 150.79 142.174C149.655 142.164 148.531 142.38 147.481 142.809C146.431 143.239 145.477 143.873 144.675 144.675C143.873 145.477 143.239 146.431 142.81 147.481C142.38 148.53 142.164 149.655 142.174 150.789C142.184 151.923 142.419 153.044 142.867 154.086C143.315 155.128 143.965 156.071 144.781 156.859L150.82 162.898C152.431 164.454 154.589 165.315 156.828 165.295C159.068 165.276 161.21 164.378 162.794 162.794C164.378 161.21 165.276 159.068 165.296 156.828C165.315 154.589 164.454 152.431 162.898 150.82L156.859 144.781ZM42.1019 42.1016C43.7037 40.5002 45.8759 39.6007 48.1408 39.6007C50.4058 39.6007 52.578 40.5002 54.1798 42.1016L60.2188 48.1405C61.7747 49.7515 62.6356 51.9091 62.6162 54.1488C62.5967 56.3883 61.6984 58.5307 60.1147 60.1144C58.531 61.6981 56.3887 62.5964 54.1491 62.6159C51.9095 62.6353 49.7518 61.7744 48.1408 60.2185L42.1019 54.1795C40.5006 52.5777 39.601 50.4055 39.601 48.1405C39.601 45.8756 40.5006 43.7034 42.1019 42.1016ZM60.2188 156.859C61.0346 156.071 61.6853 155.128 62.133 154.086C62.5806 153.044 62.8162 151.923 62.8261 150.789C62.836 149.655 62.6198 148.53 62.1904 147.481C61.7609 146.431 61.1266 145.477 60.3246 144.675C59.5226 143.873 58.5689 143.239 57.5192 142.809C56.4695 142.38 55.3447 142.164 54.2105 142.174C53.0764 142.184 51.9555 142.419 50.9134 142.867C49.8713 143.314 48.9288 143.965 48.1408 144.781L42.1019 150.82C41.2861 151.608 40.6353 152.55 40.1877 153.593C39.74 154.635 39.5044 155.756 39.4945 156.89C39.4847 158.024 39.7008 159.149 40.1303 160.198C40.5597 161.248 41.194 162.202 41.996 163.004C42.798 163.806 43.7517 164.44 44.8014 164.869C45.8512 165.299 46.9759 165.515 48.1101 165.505C49.2442 165.495 50.3651 165.26 51.4072 164.812C52.4493 164.364 53.3918 163.714 54.1798 162.898L60.2188 156.859ZM162.898 42.1016C164.499 43.7034 165.399 45.8756 165.399 48.1405C165.399 50.4055 164.499 52.5777 162.898 54.1795L156.859 60.2185C156.071 61.0343 155.129 61.685 154.087 62.1326C153.045 62.5803 151.924 62.8159 150.79 62.8258C149.655 62.8357 148.531 62.6195 147.481 62.1901C146.431 61.7606 145.477 61.1263 144.675 60.3243C143.873 59.5223 143.239 58.5686 142.81 57.5189C142.38 56.4691 142.164 55.3444 142.174 54.2102C142.184 53.0761 142.419 51.9552 142.867 50.9131C143.315 49.871 143.965 48.9285 144.781 48.1405L150.82 42.1016C152.422 40.5002 154.594 39.6007 156.859 39.6007C159.124 39.6007 161.296 40.5002 162.898 42.1016ZM59.7917 102.5C59.7917 91.1728 64.2913 80.3097 72.3007 72.3004C80.31 64.291 91.1731 59.7914 102.5 59.7914C113.827 59.7914 124.69 64.291 132.699 72.3004C140.709 80.3097 145.208 91.1728 145.208 102.5C145.208 113.827 140.709 124.69 132.699 132.699C124.69 140.708 113.827 145.208 102.5 145.208C91.1731 145.208 80.31 140.708 72.3007 132.699C64.2913 124.69 59.7917 113.827 59.7917 102.5Z" fill="white"/>
</svg>
