<svg width="30" height="30" viewBox="0 0 160 160" fill="none" xmlns="http://www.w3.org/2000/svg">
<g clip-path="url(#clip0_27_70)">
<path d="M133.333 116.667C135.901 116.668 138.371 117.657 140.229 119.43C142.088 121.202 143.193 123.621 143.317 126.186C143.44 128.751 142.572 131.266 140.892 133.208C139.212 135.151 136.849 136.372 134.293 136.62L133.333 136.667H26.6666C24.0985 136.666 21.6293 135.676 19.7707 133.904C17.9121 132.132 16.8065 129.713 16.6831 127.147C16.5597 124.582 17.4279 122.068 19.1078 120.126C20.7877 118.183 23.1505 116.961 25.7066 116.714L26.6666 116.667H133.333ZM133.333 70.0002C135.985 70.0002 138.529 71.0537 140.404 72.9291C142.28 74.8045 143.333 77.348 143.333 80.0002C143.333 82.6523 142.28 85.1959 140.404 87.0712C138.529 88.9466 135.985 90.0002 133.333 90.0002H26.6666C24.0145 90.0002 21.4709 88.9466 19.5956 87.0712C17.7202 85.1959 16.6666 82.6523 16.6666 80.0002C16.6666 77.348 17.7202 74.8045 19.5956 72.9291C21.4709 71.0537 24.0145 70.0002 26.6666 70.0002H133.333ZM133.333 23.3335C135.985 23.3335 138.529 24.3871 140.404 26.2624C142.28 28.1378 143.333 30.6813 143.333 33.3335C143.333 35.9857 142.28 38.5292 140.404 40.4046C138.529 42.2799 135.985 43.3335 133.333 43.3335H26.6666C24.0145 43.3335 21.4709 42.2799 19.5956 40.4046C17.7202 38.5292 16.6666 35.9857 16.6666 33.3335C16.6666 30.6813 17.7202 28.1378 19.5956 26.2624C21.4709 24.3871 24.0145 23.3335 26.6666 23.3335H133.333Z" fill="white"/>
</g>
<defs>
<clipPath id="clip0_27_70">
<rect width="160" height="160" fill="white"/>
</clipPath>
</defs>
</svg>
