<svg width="200" height="200" viewBox="0 0 579 579" fill="none" xmlns="http://www.w3.org/2000/svg">
<circle cx="289.5" cy="289.5" r="284.5" fill="#09153B" stroke="white" strokeWidth="10"/>
<path d="M289.5 136.583C302.462 136.583 314.894 141.733 324.06 150.899C333.226 160.064 338.375 172.496 338.375 185.458V283.208C338.375 296.171 333.226 308.602 324.06 317.768C314.894 326.934 302.462 332.083 289.5 332.083C276.538 332.083 264.106 326.934 254.94 317.768C245.774 308.602 240.625 296.171 240.625 283.208V185.458C240.625 172.496 245.774 160.064 254.94 150.899C264.106 141.733 276.538 136.583 289.5 136.583ZM403.542 283.208C403.542 340.718 361.02 388.127 305.792 396.11V446.125H273.208V396.11C217.98 388.127 175.458 340.718 175.458 283.208H208.042C208.042 304.813 216.624 325.532 231.9 340.808C247.177 356.085 267.896 364.667 289.5 364.667C311.104 364.667 331.823 356.085 347.1 340.808C362.376 325.532 370.958 304.813 370.958 283.208H403.542Z" fill="white"/>
</svg>
