<svg width="60" height="60" viewBox="0 0 159 159" fill="none" xmlns="http://www.w3.org/2000/svg">
<path d="M121.661 53.3316L116.978 48.6477C108.107 39.7747 96.3754 34.3367 83.8714 33.3011C71.3673 32.2655 58.9014 35.6995 48.6915 42.9921C38.4816 50.2848 31.1901 60.9631 28.1142 73.1271C25.0382 85.291 26.3775 98.1518 31.8936 109.421C37.4097 120.69 46.7449 129.637 58.2382 134.67C69.7315 139.703 82.6375 140.494 94.6599 136.905C106.682 133.315 117.041 125.577 123.894 115.067C130.747 104.556 133.648 91.9558 132.083 79.5069M121.661 53.3316L93.5516 53.3382M121.661 53.3316V25.2217" stroke="white" strokeWidth="15" stroke-linecap="round" stroke-linejoin="round"/>
</svg>
