<svg width="60" height="60" viewBox="0 0 187 187" fill="none" xmlns="http://www.w3.org/2000/svg">
<path d="M72.0604 96.2393C71.1979 95.3463 70.1662 94.634 69.0255 94.144C67.8847 93.654 66.6578 93.396 65.4163 93.3852C64.1748 93.3745 62.9436 93.611 61.7946 94.0812C60.6455 94.5513 59.6015 95.2456 58.7236 96.1234C57.8457 97.0013 57.1515 98.0453 56.6813 99.1944C56.2112 100.343 55.9746 101.575 55.9854 102.816C55.9962 104.058 56.2541 105.285 56.7442 106.425C57.2342 107.566 57.9465 108.598 58.8395 109.46L86.8895 137.51C88.6429 139.263 91.0207 140.248 93.5 140.248C95.9793 140.248 98.357 139.263 100.11 137.51L128.16 109.46C129.864 107.697 130.806 105.335 130.785 102.883C130.763 100.432 129.78 98.0868 128.047 96.3532C126.313 94.6197 123.968 93.6363 121.516 93.615C119.065 93.5937 116.703 94.5362 114.94 96.2393L102.85 108.329V56.0998H149.6C154.56 56.0998 159.316 58.07 162.823 61.5769C166.33 65.0838 168.3 69.8402 168.3 74.7998V140.25C168.3 145.209 166.33 149.966 162.823 153.473C159.316 156.98 154.56 158.95 149.6 158.95H37.4C32.4404 158.95 27.684 156.98 24.1771 153.473C20.6701 149.966 18.7 145.209 18.7 140.25V74.7998C18.7 69.8402 20.6701 65.0838 24.1771 61.5769C27.684 58.07 32.4404 56.0998 37.4 56.0998H84.15V108.329L72.0604 96.2393ZM84.15 37.3998C84.15 34.92 85.1351 32.5418 86.8885 30.7884C88.642 29.0349 91.0202 28.0498 93.5 28.0498C95.9798 28.0498 98.358 29.0349 100.111 30.7884C101.865 32.5418 102.85 34.92 102.85 37.3998V56.0998H84.15V37.3998Z" fill="white"/>
</svg>
